<svg xmlns="http://www.w3.org/2000/svg" width="132.076" height="19.6" viewBox="0 0 132.076 19.6"><defs><style>.a{fill:#075e93;}.b{fill:#808183;}.c{fill:#f5e06d;}.d{fill:#ce9cc3;}.e{fill:#cad881;}.f{fill:#d1e8fa;}.g{fill:#ce5e5b;}.h{fill:#c9ddb6;}.i{fill:#e4a95d;}.j{fill:#a68abc;}.k{fill:#f1cc5d;}.l{fill:#80aadc;}</style></defs><g transform="translate(-24.024 -12.2)"><path class="a" d="M124,22.8V28l-1.9.5-2.3.2a8,8,0,0,1-2.8-.5,6,6,0,0,1-2.1-1.3,5.7,5.7,0,0,1-1.3-2.1,7.4,7.4,0,0,1-.5-2.6,7.7,7.7,0,0,1,.5-2.8,6,6,0,0,1,1.4-2.2,6.2,6.2,0,0,1,2.2-1.4,7.9,7.9,0,0,1,2.9-.5l2.1.2,1.8.6-.3,1.4L122,17l-1.8-.2a5,5,0,0,0-3.8,1.4,5.4,5.4,0,0,0-1.4,4,5.2,5.2,0,0,0,1.3,3.8,5.2,5.2,0,0,0,3.9,1.3h2V22.8Zm8.9-7.2L138,28.4h-1.8L135,25.3h-6l-1.2,3.1H126l5.1-12.8Zm1.6,8.3L132,17.2l-2.5,6.7Zm5.6,4.5h1.8V15.6h-1.8Zm16,0h-1.8L153,25.3h-6l-1.2,3.1H144l5.1-12.8h1.7Zm-3.5-4.5L150,17.2l-2.5,6.7Z"/><path class="b" d="M69.9,21.5a3.4,3.4,0,0,0,.9-2.3,3.1,3.1,0,0,0-.4-1.6,3.3,3.3,0,0,0-1.1-1.1,5.1,5.1,0,0,0-1.6-.7l-1.9-.2H62.5V28.4h1.8V23.3h1.4l4.2,5.2h2.2L67.6,23A4.9,4.9,0,0,0,70,21.6m-4.8.3h-.9V17H67l1,.4a1.9,1.9,0,0,1,1,1.7,2.2,2.2,0,0,1-.3,1.2,2.4,2.4,0,0,1-.8.8l-1.2.5-1.5.2m16.5-6.3h1.8v8.3a5.3,5.3,0,0,1-.3,1.9,4.3,4.3,0,0,1-1,1.5,4.4,4.4,0,0,1-1.6,1,6.6,6.6,0,0,1-4.3,0,4.4,4.4,0,0,1-1.6-1,4.3,4.3,0,0,1-1-1.5,5.3,5.3,0,0,1-.3-1.9V15.6h1.8V24a3.4,3.4,0,0,0,.8,2.4,3.7,3.7,0,0,0,4.9,0,3.4,3.4,0,0,0,.8-2.4Zm11.2.9a4.7,4.7,0,0,0-1.6-.7l-1.9-.2H86.3V28.4h1.8v-5H89l2.1-.3a5.4,5.4,0,0,0,1.7-.8A3.8,3.8,0,0,0,93.9,21a3.7,3.7,0,0,0,0-3.3,3.4,3.4,0,0,0-1-1.2m-.6,3.9a2.4,2.4,0,0,1-.7.8l-1.1.5-1.4.2h-.9V17h2.5l1,.4a2.075,2.075,0,0,1,1,1.8,2.3,2.3,0,0,1-.3,1.1m15.2-1a6.3,6.3,0,0,0-1.2-2.1,5.8,5.8,0,0,0-2-1.4,6.9,6.9,0,0,0-5.4,0,5.8,5.8,0,0,0-2,1.4,6.3,6.3,0,0,0-1.2,2.1,8,8,0,0,0,0,5.1A6.3,6.3,0,0,0,97,26.5a5.7,5.7,0,0,0,2,1.4,6.9,6.9,0,0,0,5.4,0,5.7,5.7,0,0,0,2-1.4,6.3,6.3,0,0,0,1.2-2.1,8,8,0,0,0,0-5.1M105.8,24a5,5,0,0,1-.8,1.7,3.9,3.9,0,0,1-1.4,1.1,4.9,4.9,0,0,1-3.9,0,3.9,3.9,0,0,1-1.4-1.1,5,5,0,0,1-.8-1.7,7.3,7.3,0,0,1,0-4.1,4.9,4.9,0,0,1,.8-1.7,4,4,0,0,1,1.4-1.1,4.8,4.8,0,0,1,3.9,0,4,4,0,0,1,1.4,1.1,4.9,4.9,0,0,1,.8,1.7,7.3,7.3,0,0,1,0,4.1m-46-1.3h.1v5.2l-1.9.5-2.3.2a8,8,0,0,1-2.8-.5,6,6,0,0,1-2.1-1.3,5.7,5.7,0,0,1-1.3-2.1,7.4,7.4,0,0,1-.5-2.6,7.8,7.8,0,0,1,.5-2.8,6,6,0,0,1,1.4-2.1,6.2,6.2,0,0,1,2.2-1.4,7.8,7.8,0,0,1,2.9-.5l2.1.2,1.8.6-.3,1.4-2-.5-1.8-.2A5,5,0,0,0,52,18.2a5.4,5.4,0,0,0-1.4,4A5.2,5.2,0,0,0,52,25.9a5.2,5.2,0,0,0,3.9,1.3h1.2l.8-.2V22.7h1.9Z"/><path class="c" d="M33.7,14.5h0V12.2A9.7,9.7,0,0,0,28,14.1L29.3,16a7.4,7.4,0,0,1,4.4-1.4"/><path class="d" d="M29.3,16,28,14.1A9.7,9.7,0,0,0,24.5,19l2.2.7A7.5,7.5,0,0,1,29.3,16"/><path class="e" d="M26.3,22a7.5,7.5,0,0,1,.4-2.3L24.5,19a9.7,9.7,0,0,0,0,6l2.2-.7a7.5,7.5,0,0,1-.4-2.3"/><path class="f" d="M26.6,24.3l-2.2.7A9.7,9.7,0,0,0,28,29.9L29.4,28a7.5,7.5,0,0,1-2.7-3.7"/><path class="g" d="M29.3,28,28,29.9a9.7,9.7,0,0,0,5.7,1.9s0-1,0-2.3A7.4,7.4,0,0,1,29.3,28"/><path class="h" d="M33.7,29.5h0v2.3a9.7,9.7,0,0,0,5.7-1.9L38.1,28a7.4,7.4,0,0,1-4.4,1.4"/><path class="i" d="M40.8,24.3A7.5,7.5,0,0,1,38.1,28l1.4,1.8A9.7,9.7,0,0,0,43,25l-2.2-.7"/><path class="j" d="M43,19l-2.2.7a7.5,7.5,0,0,1,0,4.6L43,25a9.7,9.7,0,0,0,0-6"/><path class="k" d="M40.8,19.7,43,19a9.7,9.7,0,0,0-3.5-4.9L38.1,16a7.5,7.5,0,0,1,2.7,3.7"/><path class="l" d="M38.1,16l1.4-1.9a9.7,9.7,0,0,0-5.7-1.9v2.3A7.4,7.4,0,0,1,38.1,16"/></g></svg>