<svg xmlns="http://www.w3.org/2000/svg" width="14.55" height="17.496" viewBox="0 0 14.55 17.496"><defs><style>.a{fill:#cfcfcf;}</style></defs><g transform="translate(-1256.55 -13.4)"><path class="a" d="M1270.2,30.5a.8.8,0,0,1-.8-.9V28a2.6,2.6,0,0,0-2.6-2.6h-5.9a2.6,2.6,0,0,0-2.6,2.6v1.7a.9.9,0,1,1-1.7,0V28a4.3,4.3,0,0,1,4.3-4.2h5.9a4.3,4.3,0,0,1,4.3,4.3v1.7a.8.8,0,0,1-.9.7Z"/><path class="a" d="M1263.9,22a4.3,4.3,0,1,1,4.3-4.2A4.3,4.3,0,0,1,1263.9,22Zm0-6.8a2.6,2.6,0,1,0,2.5,2.6,2.6,2.6,0,0,0-2.5-2.6Z"/></g></svg>