<svg xmlns="http://www.w3.org/2000/svg" width="16.75" height="16.75" viewBox="0 0 16.75 16.75"><defs><style>.a{fill:#fff;}</style></defs><g transform="translate(-1295.5 -13.75)"><path class="a" d="M1303.9,24.8a2.8,2.8,0,1,1,2.8-2.8,2.8,2.8,0,0,1-2.8,2.8Zm0-4.2a1.4,1.4,0,1,0,1.4,1.4,1.4,1.4,0,0,0-1.4-1.4Z"/><path class="a" d="M1304,30.5a2.1,2.1,0,0,1-2.1-2.1.5.5,0,0,0-.9-.4,2.121,2.121,0,1,1-3-3h0a.473.473,0,0,0-.3-.8h-.1a2.1,2.1,0,0,1,0-4.2.475.475,0,0,0,.4-.8,2.055,2.055,0,0,1,1.4-3.6h0a2.1,2.1,0,0,1,1.5.6.5.5,0,0,0,.5.1h.1a.5.5,0,0,0,.2-.4h0a2.15,2.15,0,0,1,4.3,0,.475.475,0,0,0,.8.4,2.121,2.121,0,1,1,3,3h-.1a.5.5,0,0,0-.1.5h0l.4.2h.1a2.15,2.15,0,1,1,0,4.3.5.5,0,0,0-.5.3h0a.5.5,0,0,0,.1.5,2.121,2.121,0,0,1-3,3,.474.474,0,0,0-.8.3h0A2.1,2.1,0,0,1,1304,30.5Zm-2.6-4.1.7.2a1.9,1.9,0,0,1,1.2,1.7h0a.7.7,0,1,0,1.4,0h0a1.9,1.9,0,0,1,3.2-1.3.744.744,0,1,0,1.1-1,1.9,1.9,0,0,1,1.3-3.2.7.7,0,1,0,.1-1.4h-.1a1.9,1.9,0,0,1-1.7-1.1V20a1.9,1.9,0,0,1,.4-1.9h.1a.707.707,0,1,0-1-1,1.864,1.864,0,0,1-3.2-1.3.7.7,0,1,0-1.4-.1h0a1.9,1.9,0,0,1-1.1,1.7h-.2a1.9,1.9,0,0,1-1.9-.4h-.1l-.5-.2h0l-.5.2a.7.7,0,0,0,0,1,1.9,1.9,0,0,1,.4,2.1,1.8,1.8,0,0,1-1.7,1.2h-.1a.7.7,0,0,0,0,1.4h.1A1.9,1.9,0,0,1,1299,26h0a.707.707,0,0,0,1,1,2,2,0,0,1,1.3-.6Zm7.8-2.3Z"/></g></svg>